<?xml version="1.0" encoding="UTF-8"?><svg id="Layer_1" xmlns="http://www.w3.org/2000/svg" viewBox="0 0 60 60"><defs><style>.cls-1{fill:#fff;}</style></defs><path class="cls-1" d="m30,6.43c1.06,0,1.92-.86,1.92-1.92s-.86-1.91-1.92-1.91-1.91.86-1.91,1.91.86,1.92,1.91,1.92Zm0-1.47c-.24,0-.44-.2-.44-.44s.2-.44.44-.44.44.2.44.44-.2.44-.44.44Z"/><path class="cls-1" d="m30.59,6.49h-1.18c-1.14,0-2.06.92-2.06,2.05v1.32c0,.41.33.74.74.74h3.82c.41,0,.74-.33.74-.74v-1.32c0-1.13-.92-2.05-2.05-2.05Zm-1.18,1.47h1.18c.32,0,.58.26.58.58v.59h-2.35v-.59c0-.32.26-.58.59-.58Z"/><path class="cls-1" d="m50.27,18.13c1.06,0,1.92-.86,1.92-1.92s-.86-1.92-1.92-1.92-1.91.86-1.91,1.92.86,1.92,1.91,1.92Zm0-1.47c-.24,0-.44-.2-.44-.44s.2-.44.44-.44.44.2.44.44-.2.44-.44.44Z"/><path class="cls-1" d="m48.36,22.3h3.82c.41,0,.74-.33.74-.74v-1.32c0-1.14-.92-2.06-2.06-2.06h-1.18c-1.13,0-2.06.92-2.06,2.06v1.32c0,.41.33.74.74.74Zm.74-1.47v-.58c0-.32.26-.59.58-.59h1.18c.32,0,.59.26.59.59v.58h-2.35Z"/><path class="cls-1" d="m9.72,41.54c1.05,0,1.91-.86,1.91-1.92s-.86-1.92-1.91-1.92-1.92.86-1.92,1.92.86,1.92,1.92,1.92Zm0-1.47c-.25,0-.45-.2-.45-.44s.2-.44.45-.44.44.2.44.44-.2.44-.44.44Z"/><path class="cls-1" d="m7.81,45.71h3.82c.41,0,.74-.33.74-.74v-1.32c0-1.13-.92-2.05-2.06-2.05h-1.18c-1.14,0-2.06.92-2.06,2.05v1.32c0,.41.33.74.74.74Zm.74-1.47v-.59c0-.32.26-.58.59-.58h1.18c.32,0,.59.26.59.58v.59h-2.35Z"/><path class="cls-1" d="m56.66,40c-.46-1.71-1.55-3.13-3.08-4.01-1-.58-2.14-.89-3.3-.89-2.08,0-4.06,1-5.3,2.69l-3.47-2c.91-1.79,1.38-3.79,1.38-5.79s-.48-4-1.38-5.79l3.47-2c1.25,1.69,3.22,2.69,5.31,2.69,1.15,0,2.29-.31,3.29-.88,3.15-1.83,4.24-5.87,2.42-9.02-1.18-2.03-3.37-3.3-5.72-3.3-1.15,0-2.29.31-3.3.89-1.53.88-2.62,2.31-3.08,4.01-.38,1.44-.27,2.98.33,4.34l-3.47,2c-2.24-3.41-5.98-5.56-10.03-5.79v-3.99c3.3-.37,5.87-3.22,5.87-6.55,0-3.64-2.96-6.6-6.6-6.6s-6.6,2.96-6.6,6.6c0,3.32,2.57,6.18,5.86,6.55v3.99c-4.05.23-7.79,2.39-10.03,5.79l-3.47-2c.6-1.37.72-2.91.33-4.35-.46-1.7-1.55-3.12-3.08-4-1-.58-2.14-.89-3.3-.89-2.35,0-4.54,1.26-5.72,3.3-1.81,3.15-.73,7.2,2.42,9.02,1,.58,2.14.88,3.29.88,2.09,0,4.06-1,5.31-2.69l3.47,2c-.91,1.79-1.38,3.79-1.38,5.79s.48,4,1.38,5.79l-3.47,2c-1.24-1.69-3.22-2.69-5.3-2.69-1.15,0-2.29.31-3.3.88-1.53.88-2.62,2.3-3.08,4-.46,1.7-.22,3.48.66,5.01,1.18,2.04,3.37,3.3,5.72,3.3,1.15,0,2.29-.31,3.29-.88,1.53-.88,2.62-2.3,3.08-4,.39-1.44.27-2.98-.33-4.35l3.47-2c2.24,3.4,5.97,5.56,10.03,5.79v3.99c-3.3.37-5.86,3.23-5.86,6.56,0,3.64,2.96,6.59,6.6,6.59s6.6-2.96,6.6-6.59c0-3.33-2.57-6.19-5.87-6.56v-3.99c4.06-.23,7.79-2.39,10.03-5.79l3.47,2c-1.33,3.03-.13,6.68,2.75,8.35,1,.58,2.14.88,3.29.88,2.36,0,4.55-1.26,5.72-3.3.88-1.52,1.12-3.3.66-5Zm-1.42.38c.35,1.32.17,2.7-.51,3.89-.91,1.58-2.61,2.56-4.45,2.56-.89,0-1.78-.24-2.56-.69-1.19-.69-2.03-1.79-2.39-3.12-.36-1.32-.17-2.7.51-3.88.91-1.58,2.62-2.57,4.44-2.57.89,0,1.78.24,2.56.69,1.19.68,2.04,1.79,2.39,3.11Zm-13.83-10.38c0,6.29-5.12,11.4-11.4,11.4s-11.4-5.12-11.4-11.4,5.12-11.4,11.4-11.4,11.4,5.12,11.4,11.4Zm-6.28-23.4c0,2.82-2.3,5.12-5.13,5.12s-5.13-2.3-5.13-5.12,2.3-5.13,5.13-5.13,5.13,2.3,5.13,5.13Zm-5.13,51.92c-2.83,0-5.13-2.3-5.13-5.12s2.3-5.13,5.13-5.13,5.13,2.3,5.13,5.13-2.3,5.12-5.13,5.12Zm15.87-37.69l-.07-.03c-.65-1.17-.82-2.52-.48-3.82.36-1.32,1.2-2.43,2.39-3.12.78-.45,1.66-.69,2.56-.69,1.83,0,3.53.98,4.44,2.56,1.41,2.45.57,5.59-1.88,7.01-.78.45-1.66.69-2.55.69-1.8,0-3.49-.96-4.42-2.51v-.09Zm-31.71.03c-.91,1.58-2.61,2.56-4.45,2.56-.89,0-1.78-.24-2.55-.69-2.45-1.42-3.29-4.56-1.88-7.01.91-1.58,2.61-2.56,4.44-2.56.89,0,1.78.24,2.56.69,1.19.68,2.04,1.79,2.39,3.11.36,1.32.17,2.71-.51,3.89Zm-9.39,19.51c.35-1.32,1.2-2.43,2.39-3.11.78-.45,1.67-.69,2.56-.69,1.81,0,3.49.96,4.41,2.51v.09l.07.04c.66,1.17.83,2.53.48,3.83-.36,1.32-1.2,2.42-2.39,3.11-.78.45-1.66.69-2.56.69-1.83,0-3.53-.98-4.45-2.56-.68-1.19-.87-2.57-.51-3.89Z"/><path class="cls-1" d="m50.28,41.54c1.05,0,1.91-.86,1.91-1.92s-.86-1.92-1.91-1.92-1.92.86-1.92,1.92.86,1.92,1.92,1.92Zm0-1.47c-.25,0-.44-.2-.44-.44s.2-.44.44-.44.44.2.44.44-.2.44-.44.44Z"/><path class="cls-1" d="m50.86,41.59h-1.18c-1.13,0-2.06.92-2.06,2.05v1.32c0,.41.33.74.74.74h3.82c.41,0,.74-.33.74-.74v-1.32c0-1.13-.92-2.05-2.06-2.05Zm-1.76,2.64v-.59c0-.32.26-.58.58-.58h1.18c.32,0,.59.26.59.58v.59h-2.35Z"/><path class="cls-1" d="m30,53.23c1.06,0,1.92-.86,1.92-1.91s-.86-1.92-1.92-1.92-1.91.86-1.91,1.92.86,1.91,1.91,1.91Zm0-1.47c-.24,0-.44-.2-.44-.44s.2-.44.44-.44.44.2.44.44-.2.44-.44.44Z"/><path class="cls-1" d="m30.59,53.29h-1.18c-1.14,0-2.06.92-2.06,2.06v1.32c0,.41.33.74.74.74h3.82c.41,0,.74-.33.74-.74v-1.32c0-1.14-.92-2.06-2.06-2.06Zm-1.76,2.06c0-.32.26-.59.59-.59h1.18c.32,0,.59.27.59.59v.58h-2.35v-.58Z"/><path class="cls-1" d="m9.72,18.13c1.05,0,1.91-.86,1.91-1.92s-.86-1.92-1.91-1.92-1.92.86-1.92,1.92.86,1.92,1.92,1.92Zm0-1.47c-.25,0-.45-.2-.45-.44s.2-.44.45-.44.44.2.44.44-.2.44-.44.44Z"/><path class="cls-1" d="m10.31,18.18h-1.18c-1.13,0-2.06.92-2.06,2.06v1.32c0,.41.33.74.74.74h3.82c.41,0,.74-.33.74-.74v-1.32c0-1.14-.92-2.06-2.06-2.06Zm-1.76,2.64v-.58c0-.32.27-.59.58-.59h1.18c.32,0,.59.26.59.59v.58h-2.35Z"/><path class="cls-1" d="m30,29.64c1.49,0,2.7-1.21,2.7-2.69s-1.21-2.68-2.7-2.68-2.68,1.2-2.68,2.68,1.2,2.69,2.68,2.69Zm0-1.58c-.61,0-1.1-.5-1.1-1.11s.49-1.1,1.1-1.1,1.11.49,1.11,1.1-.5,1.11-1.11,1.11Z"/><path class="cls-1" d="m30.95,29.91h-1.9c-1.61,0-2.91,1.31-2.91,2.91v2.12c0,.44.36.79.79.79h6.14c.44,0,.79-.35.79-.79v-2.12c0-1.6-1.31-2.91-2.91-2.91Zm-3.23,4.24v-1.33c0-.73.6-1.33,1.33-1.33h1.9c.73,0,1.33.6,1.33,1.33v1.33h-4.56Z"/></svg>