<?xml version="1.0" encoding="UTF-8"?><svg id="Layer_1" xmlns="http://www.w3.org/2000/svg" viewBox="0 0 60 60"><defs><style>.cls-1{fill:#fff;}</style></defs><path class="cls-1" d="m24.56,23.02h1.99v2.55c0,.47.38.85.85.85s.85-.38.85-.85v-2.55h3.59v2.55c0,.47.38.85.85.85s.85-.38.85-.85v-2.55h1.99c.68,0,1.24-.55,1.24-1.24v-1.08h2.51c.47,0,.85-.38.85-.85s-.38-.85-.85-.85h-2.51v-4.45h2.51c.47,0,.85-.38.85-.85s-.38-.85-.85-.85h-2.51v-2.04c0-.68-.55-1.24-1.24-1.24h-2s0-.07,0-.1v-2.69c0-.47-.38-.85-.85-.85s-.85.38-.85.85v2.69s0,.07,0,.1h-3.6s0-.07,0-.1v-2.69c0-.47-.38-.85-.85-.85s-.85.38-.85.85v2.69s0,.07,0,.1h-2c-.68,0-1.24.55-1.24,1.24v2h-2.59c-.47,0-.85.38-.85.85s.38.85.85.85h2.59v4.45h-2.59c-.47,0-.85.38-.85.85s.38.85.85.85h2.59v1.12c0,.68.55,1.24,1.24,1.24Zm.47-1.71v-10.04h10.04v10.04h-10.04Z"/><path class="cls-1" d="m30.65,12.84c-.32-.32-.88-.32-1.21,0l-2.84,2.84c-.16.16-.25.38-.25.6s.09.44.25.6l2.84,2.84c.16.16.38.25.6.25s.44-.09.6-.25l2.84-2.84c.16-.16.25-.38.25-.6s-.09-.44-.25-.6l-2.84-2.84Zm1.03,3.45l-1.64,1.64-1.64-1.64,1.64-1.64,1.64,1.64Z"/><path class="cls-1" d="m20.43,29.53c.5.74,1.01,1.47,1.53,2.2.49.68.69,1.38.63,2.21-.06.78-.05,1.48-.03,2.22,0,.32.01.66.01,1,0,.47.38.85.85.85s.85-.38.85-.85c0-.34,0-.67-.01-1-.01-.71-.03-1.39.03-2.09.09-1.23-.22-2.32-.94-3.33-.52-.72-1.02-1.45-1.52-2.18-.78-1.14-1.6-2.33-2.46-3.46-2.92-3.82-3.68-8.75-2.05-13.17,1.63-4.42,5.41-7.65,10.11-8.65,3.63-.77,7.51.08,10.63,2.34,3.14,2.27,5.17,5.7,5.57,9.41.4,3.64-.49,6.9-2.71,9.95-1.44,1.98-2.86,4.1-4.23,6.15l-.38.56c-.49.73-.49,1.38-.47,4.09v1.38c0,.47.39.85.86.85s.85-.38.85-.85v-1.41c-.02-2.16-.03-2.81.17-3.1l.52-.77c1.31-1.95,2.66-3.96,4.05-5.88,2.45-3.36,3.47-7.11,3.03-11.14-.46-4.19-2.74-8.06-6.27-10.61-3.51-2.54-7.88-3.5-11.99-2.63-5.27,1.12-9.51,4.76-11.35,9.73-1.84,4.98-.98,10.51,2.29,14.8.84,1.1,1.64,2.26,2.41,3.39Z"/><path class="cls-1" d="m21.88,40.37c0,.47.38.85.85.85h14.74c.47,0,.85-.38.85-.85s-.38-.85-.85-.85h-14.74c-.47,0-.85.38-.85.85Z"/><path class="cls-1" d="m29.25,30.64v4.9c0,.47.38.85.85.85s.85-.38.85-.85v-4.9c0-.47-.38-.85-.85-.85s-.85.38-.85.85Z"/><path class="cls-1" d="m11.85,8.52c.16.16.38.25.6.25.35,0,.65-.2.79-.53.13-.32.06-.68-.18-.93l-3.07-3.08c-.33-.33-.87-.33-1.21,0-.33.33-.33.87,0,1.21l3.07,3.07Z"/><path class="cls-1" d="m47.91,8.77c.23,0,.44-.09.6-.25l3.07-3.08c.33-.33.33-.87,0-1.21-.33-.33-.88-.33-1.21,0l-3.07,3.08c-.25.25-.32.6-.18.93.13.33.44.53.79.53Z"/><path class="cls-1" d="m11.85,25.8l-3.07,3.07c-.25.25-.32.6-.19.93.14.33.44.53.79.53.23,0,.44-.09.6-.25l3.07-3.07c.33-.33.33-.87,0-1.21-.33-.33-.87-.33-1.21,0Z"/><path class="cls-1" d="m48.51,25.8c-.33-.33-.87-.33-1.21,0-.33.33-.33.87,0,1.21l3.07,3.07c.16.16.38.25.6.25.35,0,.65-.2.79-.53.13-.32.06-.68-.18-.93l-3.07-3.07Z"/><path class="cls-1" d="m24.18,42.22c-.47,0-.85.38-.85.85v4.01l-7.52,2.96c-.33.13-.54.44-.54.79v2.65c-.95.36-1.57,1.25-1.57,2.26,0,1.34,1.09,2.42,2.42,2.42s2.42-1.09,2.42-2.42c0-1.01-.63-1.9-1.57-2.26v-2.06l7.52-2.96c.33-.13.54-.44.54-.79v-4.6c0-.47-.38-.85-.85-.85Zm-8.06,14.25c-.4,0-.72-.32-.72-.72s.32-.71.67-.72h.03s.06,0,.06,0c.38.02.69.33.69.72s-.32.72-.72.72Z"/><path class="cls-1" d="m28.4,49.82v-4.64c0-.47-.38-.85-.85-.85s-.85.38-.85.85v4.64c-.82.34-1.36,1.15-1.36,2.04,0,1.22.99,2.22,2.22,2.22s2.22-.99,2.22-2.22c0-.89-.54-1.69-1.37-2.04Zm-.34,2.04c0,.28-.23.51-.51.51s-.51-.23-.51-.51.23-.51.51-.51.51.23.51.51Z"/><path class="cls-1" d="m33.9,54.02v-8.83c0-.47-.38-.85-.85-.85s-.85.38-.85.85v8.83c-.95.36-1.57,1.25-1.57,2.26,0,1.34,1.09,2.42,2.42,2.42s2.42-1.09,2.42-2.42c0-1.01-.63-1.9-1.57-2.26Zm-.13,2.26c0,.4-.32.72-.72.72s-.72-.32-.72-.72.32-.72.67-.72h.08c.38.02.69.34.69.72Z"/><path class="cls-1" d="m44.43,53.48v-2.64c0-.34-.2-.65-.51-.78l-6.82-2.95v-4.04c0-.47-.38-.85-.85-.85s-.85.38-.85.85v4.6c0,.34.2.65.51.78l6.82,2.95v2.09c-.95.36-1.57,1.25-1.57,2.26,0,1.34,1.09,2.42,2.42,2.42s2.42-1.09,2.42-2.42c0-1.01-.63-1.9-1.57-2.26Zm-.13,2.26c0,.4-.32.72-.72.72s-.72-.32-.72-.72.32-.71.67-.72h.03s.06,0,.06,0c.38.02.69.33.69.72Z"/><path class="cls-1" d="m54.21,17.19h-5.12c-.47,0-.85.38-.85.85s.38.85.85.85h5.12c.47,0,.85-.38.85-.85s-.38-.85-.85-.85Z"/><path class="cls-1" d="m11.77,18.04c0-.47-.38-.85-.85-.85h-5.12c-.47,0-.85.38-.85.85s.38.85.85.85h5.12c.47,0,.85-.38.85-.85Z"/></svg>