<svg xmlns="http://www.w3.org/2000/svg" xmlns:xlink="http://www.w3.org/1999/xlink" viewBox="0 0 60 60">
    <defs>
        <linearGradient id="linear-gradient" x1="0" y1="30" x2="60" y2="30" gradientUnits="userSpaceOnUse">
            <stop offset="0" stop-color="#d0b486"/>
            <stop offset="1" stop-color="#b28033"/>
        </linearGradient>
    </defs>
    <g fill="url(#linear-gradient)">
        <path d="M8 22h44c1.1 0 2 .9 2 2v32c0 1.1-.9 2-2 2H8c-1.1 0-2-.9-2-2V24c0-1.1.9-2 2-2z"/>

        <path d="M4 22l26-16 26 16H4z"/>

        <rect x="14" y="24" width="3" height="32"/>
        <rect x="21" y="24" width="3" height="32"/>
        <rect x="36" y="24" width="3" height="32"/>
        <rect x="43" y="24" width="3" height="32"/>

        <rect x="26" y="38" width="8" height="18" rx="4"/>

        <rect x="12" y="28" width="6" height="6" rx="1"/>
        <rect x="42" y="28" width="6" height="6" rx="1"/>
        <rect x="12" y="36" width="6" height="6" rx="1"/>
        <rect x="42" y="36" width="6" height="6" rx="1"/>

        <path d="M30 2c-3 0-6 2-6 5v8c0 6 6 12 6 12s6-6 6-12V7c0-3-3-5-6-5z"/>
        <path d="M27 10l2 2 4-4" stroke="white" stroke-width="1.5" fill="none" stroke-linecap="round" stroke-linejoin="round"/>

        <rect x="4" y="56" width="52" height="2"/>
    </g>
</svg>
