<?xml version="1.0" encoding="UTF-8"?><svg id="Layer_1" xmlns="http://www.w3.org/2000/svg" xmlns:xlink="http://www.w3.org/1999/xlink" viewBox="0 0 60 60"><defs><style>.cls-1{fill:url(#linear-gradient);}.cls-2{fill:url(#linear-gradient-8);}.cls-3{fill:url(#linear-gradient-9);}.cls-4{fill:url(#linear-gradient-3);}.cls-5{fill:url(#linear-gradient-4);}.cls-6{fill:url(#linear-gradient-2);}.cls-7{fill:url(#linear-gradient-6);}.cls-8{fill:url(#linear-gradient-7);}.cls-9{fill:url(#linear-gradient-5);}.cls-10{fill:url(#linear-gradient-14);}.cls-11{fill:url(#linear-gradient-15);}.cls-12{fill:url(#linear-gradient-16);}.cls-13{fill:url(#linear-gradient-13);}.cls-14{fill:url(#linear-gradient-12);}.cls-15{fill:url(#linear-gradient-10);}.cls-16{fill:url(#linear-gradient-11);}</style><linearGradient id="linear-gradient" x1="2.84" y1="39.5" x2="55.87" y2="39.5" gradientUnits="userSpaceOnUse"><stop offset="0" stop-color="#d0b486"/><stop offset="1" stop-color="#b28033"/></linearGradient><linearGradient id="linear-gradient-2" y1="46.97" y2="46.97" xlink:href="#linear-gradient"/><linearGradient id="linear-gradient-3" y1="19.36" y2="19.36" xlink:href="#linear-gradient"/><linearGradient id="linear-gradient-4" y1="42.29" y2="42.29" xlink:href="#linear-gradient"/><linearGradient id="linear-gradient-5" y1="49.29" y2="49.29" xlink:href="#linear-gradient"/><linearGradient id="linear-gradient-6" y1="46.97" y2="46.97" xlink:href="#linear-gradient"/><linearGradient id="linear-gradient-7" y1="20.78" y2="20.78" xlink:href="#linear-gradient"/><linearGradient id="linear-gradient-8" y1="42.29" y2="42.29" xlink:href="#linear-gradient"/><linearGradient id="linear-gradient-9" y1="29.29" y2="29.29" xlink:href="#linear-gradient"/><linearGradient id="linear-gradient-10" y1="29.29" y2="29.29" xlink:href="#linear-gradient"/><linearGradient id="linear-gradient-11" y1="36.29" y2="36.29" xlink:href="#linear-gradient"/><linearGradient id="linear-gradient-12" y1="36.29" y2="36.29" xlink:href="#linear-gradient"/><linearGradient id="linear-gradient-13" y1="43.29" y2="43.29" xlink:href="#linear-gradient"/><linearGradient id="linear-gradient-14" y1="43.29" y2="43.29" xlink:href="#linear-gradient"/><linearGradient id="linear-gradient-15" y1="49.29" y2="49.29" xlink:href="#linear-gradient"/><linearGradient id="linear-gradient-16" y1="4.5" y2="4.5" xlink:href="#linear-gradient"/></defs><path class="cls-1" d="m37.92,58.5h-16.22c-2.15,0-3.89-1.75-3.89-3.89v-30.22c0-2.15,1.75-3.89,3.89-3.89h16.22c2.15,0,3.89,1.75,3.89,3.89v30.22c0,2.15-1.75,3.89-3.89,3.89ZM21.7,22.5c-1.04,0-1.89.85-1.89,1.89v30.22c0,1.04.85,1.89,1.89,1.89h16.22c1.04,0,1.89-.85,1.89-1.89v-30.22c0-1.04-.85-1.89-1.89-1.89h-16.22Z"/><path class="cls-6" d="m14.7,58.5H1.72c-.55,0-1-.45-1-1v-21.05c0-.55.45-1,1-1h12.98c.55,0,1,.45,1,1s-.45,1-1,1H2.72v19.05h11.98c.55,0,1,.45,1,1s-.45,1-1,1Z"/><path class="cls-4" d="m7.3,33.07c-.55,0-1-.45-1-1V6.64c0-.31.14-.6.39-.79s.56-.25.86-.18l12.98,3.32c.44.11.75.51.75.97v6.54c0,.55-.45,1-1,1s-1-.45-1-1v-5.76l-10.98-2.81v24.14c0,.55-.45,1-1,1Z"/><path class="cls-5" d="m11.49,43.29h-5.32c-.55,0-1-.45-1-1s.45-1,1-1h5.32c.55,0,1,.45,1,1s-.45,1-1,1Z"/><path class="cls-9" d="m11.49,50.29h-5.32c-.55,0-1-.45-1-1s.45-1,1-1h5.32c.55,0,1,.45,1,1s-.45,1-1,1Z"/><path class="cls-7" d="m58.28,58.5h-12.98c-.55,0-1-.45-1-1s.45-1,1-1h11.98v-19.05h-11.98c-.55,0-1-.45-1-1s.45-1,1-1h12.98c.55,0,1,.45,1,1v21.05c0,.55-.45,1-1,1Z"/><path class="cls-8" d="m49.7,33.07c-.55,0-1-.45-1-1V10.54l-10.98.39v5.57c0,.55-.45,1-1,1s-1-.45-1-1v-6.54c0-.54.43-.98.96-1l12.98-.46c.27-.01.54.09.73.28.2.19.31.45.31.72v22.57c0,.55-.45,1-1,1Z"/><path class="cls-2" d="m53.83,43.29h-5.32c-.55,0-1-.45-1-1s.45-1,1-1h5.32c.55,0,1,.45,1,1s-.45,1-1,1Z"/><path class="cls-3" d="m27.81,30.29h-3.3c-.55,0-1-.45-1-1s.45-1,1-1h3.3c.55,0,1,.45,1,1s-.45,1-1,1Z"/><path class="cls-15" d="m35.81,30.29h-3.3c-.55,0-1-.45-1-1s.45-1,1-1h3.3c.55,0,1,.45,1,1s-.45,1-1,1Z"/><path class="cls-16" d="m27.81,37.29h-3.3c-.55,0-1-.45-1-1s.45-1,1-1h3.3c.55,0,1,.45,1,1s-.45,1-1,1Z"/><path class="cls-14" d="m35.81,37.29h-3.3c-.55,0-1-.45-1-1s.45-1,1-1h3.3c.55,0,1,.45,1,1s-.45,1-1,1Z"/><path class="cls-13" d="m27.81,44.29h-3.3c-.55,0-1-.45-1-1s.45-1,1-1h3.3c.55,0,1,.45,1,1s-.45,1-1,1Z"/><path class="cls-10" d="m35.81,44.29h-3.3c-.55,0-1-.45-1-1s.45-1,1-1h3.3c.55,0,1,.45,1,1s-.45,1-1,1Z"/><path class="cls-11" d="m53.83,50.29h-5.32c-.55,0-1-.45-1-1s.45-1,1-1h5.32c.55,0,1,.45,1,1s-.45,1-1,1Z"/><path class="cls-12" d="m40.81,7.5c-.55,0-1-.45-1-1v-3h-20v3c0,.55-.45,1-1,1s-1-.45-1-1V2.5c0-.55.45-1,1-1h22c.55,0,1,.45,1,1v4c0,.55-.45,1-1,1Z"/></svg>