<?xml version="1.0" encoding="UTF-8"?><svg id="Layer_1" xmlns="http://www.w3.org/2000/svg" xmlns:xlink="http://www.w3.org/1999/xlink" viewBox="0 0 60 60"><defs><style>.cls-1{fill:url(#linear-gradient);}.cls-2{fill:url(#linear-gradient-3);}.cls-3{fill:url(#linear-gradient-4);}.cls-4{fill:url(#linear-gradient-2);}.cls-5{fill:url(#linear-gradient-6);}.cls-6{fill:url(#linear-gradient-5);}</style><linearGradient id="linear-gradient" x1="4.22" y1="36.31" x2="55.79" y2="36.31" gradientUnits="userSpaceOnUse"><stop offset="0" stop-color="#d0b486"/><stop offset="1" stop-color="#b28033"/></linearGradient><linearGradient id="linear-gradient-2" y1="6.36" y2="6.36" xlink:href="#linear-gradient"/><linearGradient id="linear-gradient-3" y1="9.96" y2="9.96" xlink:href="#linear-gradient"/><linearGradient id="linear-gradient-4" y1="37.93" y2="37.93" xlink:href="#linear-gradient"/><linearGradient id="linear-gradient-5" y1="14.64" y2="14.64" xlink:href="#linear-gradient"/><linearGradient id="linear-gradient-6" y1="40.17" y2="40.17" xlink:href="#linear-gradient"/></defs><path class="cls-1" d="m19.7,44.84v10.49c0,1.03-.84,1.87-1.87,1.87h-.18c-1.03,0-1.87-.84-1.87-1.87v-15.31c0-.73-.59-1.32-1.32-1.32h-.18c-.73,0-1.32.59-1.32,1.32v15.31c0,1.03-.84,1.87-1.88,1.87h-.17c-1.03,0-1.88-.84-1.88-1.87V22.43c0-.09,0-.17.01-.26.03-.41-.16-.81-.5-1.04-.34-.23-.78-.26-1.15-.08l-.21.1c-.39.19-.64.59-.64,1.03v12.11c0,.55-.44.99-1.06.99s-1.27-.52-1.27-.99v-9.96c-.01-.44-.03-1.12-.03-1.86h0c-.02-2.2,1.16-4.24,3.08-5.31,1.72-.96,3.55-1.53,5.45-1.7.89-.08,2.62-.08,3.51,0,1.32.12,2.79.55,4.38,1.29,2,.93,3.4,2.73,3.86,4.85.64-.47,1.34-.86,2.07-1.14-.06-.2-.12-.4-.19-.59-1.26-.88-2.17-2.2-2.54-3.73-.66-.58-1.41-1.08-2.23-1.47-1.83-.85-3.56-1.35-5.15-1.49-1.02-.09-2.88-.09-3.91,0-2.22.2-4.36.86-6.36,1.98-2.65,1.48-4.28,4.29-4.25,7.33,0,.74.02,1.43.03,1.88v9.92c0,1.94,1.89,3.28,3.64,3.28.42,0,.82-.08,1.18-.22v17.97c0,2.3,1.87,4.17,4.17,4.17h.17c1.33,0,2.52-.63,3.29-1.6.76.98,1.95,1.6,3.29,1.6h.18c2.3,0,4.17-1.87,4.17-4.17v-7.88c-.5-.28-.96-.64-1.35-1.07-.41-.45-.72-.97-.95-1.53Z"/><path class="cls-4" d="m14.69,12.22c3.23,0,5.86-2.63,5.86-5.86S17.93.5,14.69.5s-5.86,2.63-5.86,5.86,2.63,5.86,5.86,5.86Zm0-9.43c1.97,0,3.57,1.6,3.57,3.57s-1.6,3.57-3.57,3.57-3.57-1.6-3.57-3.57,1.6-3.57,3.57-3.57Z"/><path class="cls-2" d="m46.44,15.43c3.01,0,5.46-2.45,5.46-5.46s-2.45-5.46-5.46-5.46-5.46,2.45-5.46,5.46,2.45,5.46,5.46,5.46Zm0-8.79c1.83,0,3.32,1.49,3.32,3.32s-1.49,3.32-3.32,3.32-3.32-1.49-3.32-3.32,1.49-3.32,3.32-3.32Z"/><path class="cls-3" d="m58.04,25.39c-.15-3.24-2.05-6.09-4.98-7.45-1.7-.79-3.31-1.25-4.78-1.38-.95-.08-2.68-.08-3.63,0-2.07.18-4.06.8-5.92,1.84-1.36.76-2.42,1.91-3.1,3.25.07.05.14.1.2.15l.18.14c.46.39.87.83,1.24,1.31.45-1.24,1.33-2.31,2.51-2.99.23-.13.46-.23.69-.34.17-.08.34-.18.52-.25.25-.11.5-.19.75-.28.17-.06.33-.13.5-.18.28-.09.57-.15.85-.22.14-.03.29-.08.43-.11.43-.09.87-.15,1.31-.19.1,0,.22-.02.34-.02.25-.01.54-.02.83-.03.15,0,.3,0,.45,0s.3,0,.45,0c.3,0,.58.01.83.03.12,0,.24.01.34.02.61.05,1.26.18,1.94.38.68.2,1.39.47,2.13.81,2.2,1.02,3.63,3.17,3.74,5.61.03.69.06,1.29.07,1.64,0,.12,0,.21,0,.26v8.8c0,.05,0,.11-.03.16,0,.02-.02.04-.03.06-.02.04-.03.07-.05.11-.02.04-.06.08-.09.11-.01.01-.02.03-.03.04-.05.05-.1.09-.15.14,0,0,0,0,0,0-.23.17-.53.29-.84.3,0,0-.01,0-.02,0-.6,0-1.08-.49-1.08-1.08v-11.07c0-.39-.21-.75-.55-.94,0,0-1.77-.53-1.77.9,0,.08,0,.16,0,.24v10.64c.17,2.44,2.13,3.17,2.13,3.17.4.17.85.27,1.33.27.07,0,.13-.01.2-.02l.46,4.02c.21,1.8-1.31,3.37-3.26,3.37h-.86v9.14c0,.96-.78,1.74-1.74,1.74h-.16c-.96,0-1.74-.78-1.74-1.74v-7.83c0-.72-.59-1.31-1.31-1.31s-1.31.59-1.31,1.31v7.83c0,.96-.78,1.75-1.75,1.75h-.16c-.96,0-1.74-.78-1.74-1.74v-9.14h-.73c-.47,0-.92-.1-1.32-.26,0,0,0,.01-.01.02-.46.51-1.01.9-1.62,1.19.55.37,1.16.65,1.82.79v7.4c0,1.99,1.62,3.6,3.6,3.6h.16c1.29,0,2.42-.68,3.06-1.7.64,1.02,1.77,1.7,3.06,1.7h.16c1.99,0,3.6-1.62,3.6-3.6v-7.37c1.13-.21,2.16-.78,2.92-1.63.91-1.02,1.35-2.38,1.19-3.72l-.51-4.46c.76-.54,1.32-1.37,1.32-2.38v-8.8c0-.23-.03-1.04-.08-2Z"/><g><path class="cls-6" d="m30,20.03c-2.98,0-5.4-2.42-5.4-5.39s2.42-5.4,5.4-5.4,5.39,2.42,5.39,5.4-2.42,5.39-5.39,5.39Zm0-8.79c-1.87,0-3.4,1.52-3.4,3.4s1.52,3.39,3.4,3.39,3.39-1.52,3.39-3.39-1.52-3.4-3.39-3.4Z"/><path class="cls-5" d="m42.97,31.26l-6.4-7.25c-.36-.48-.77-.92-1.22-1.3l-.02-.02-.03-.02s-.07-.05-.1-.08c-1.4-1.13-3.14-1.74-4.9-1.74h-.6c-1.78,0-3.53.63-4.94,1.77l-.04.03-.03.02-.03.02c-.47.39-.89.84-1.26,1.34l-6.38,7.24c-.95,1.07-1.22,2.57-.71,3.91.22.58.59,1.11,1.05,1.53.7.62,1.61.96,2.55.96.33,0,.65-.04.96-.12l-.53,4.92c-.13,1.18.26,2.36,1.05,3.25.56.62,1.28,1.05,2.07,1.26,0,0,0,0,0,0v8.39c-.01,1.54.83,2.95,2.19,3.67.58.31,1.26.48,1.93.48.89,0,1.72-.28,2.39-.76.14.1.29.19.45.28,2.11,1.12,5.2.37,5.98-3.08.08-.37.1-.75.1-1.12v-7.85s.01,0,.02,0c.79-.21,1.51-.64,2.06-1.25.79-.88,1.18-2.07,1.05-3.25l-.52-4.83s.03-.05.05-.08c.29.07.59.11.9.11.94,0,1.84-.34,2.55-.96.47-.41.83-.94,1.06-1.53.51-1.34.23-2.84-.71-3.91Zm-1.16,3.2c-.1.27-.27.53-.51.73-.35.31-.79.46-1.22.46-.35,0-.7-.11-1.01-.31l-.69-4.07c-.09-.54-.6-.91-1.15-.82-.54.09-.91.61-.82,1.15l.18,1.06,1.07,9.99c.14,1.3-.88,2.43-2.18,2.43-.52,0-.94.42-.94.94l-.02,9.32c0,1.18-.96,2.14-2.15,2.14,0,0-.01,0-.02,0-.77,0-1.36-.7-1.36-1.47v-9.79c0-.55-.45-1-1-1s-1,.45-1,1v9.77c0,.78-.6,1.49-1.38,1.49,0,0-.01,0-.02,0h0c-.36,0-.7-.09-1-.25-.68-.36-1.14-1.07-1.14-1.89v-9.31c.02-.53-.41-.95-.94-.95-1.3,0-2.32-1.13-2.18-2.43l.64-5.96.86-5.09c.09-.54-.27-1.06-.82-1.15-.55-.09-1.06.27-1.15.82l-.65,3.83c-.36.36-.82.54-1.3.54-.44,0-.87-.15-1.22-.46-.23-.21-.4-.46-.51-.73-.23-.62-.13-1.35.34-1.88l6.45-7.31c.28-.39.61-.75.98-1.06.02-.01.03-.02.05-.04,1.01-.83,2.3-1.34,3.7-1.34h.6c1.39,0,2.67.51,3.68,1.33.03.02.05.04.08.06.36.3.68.65.95,1.03l6.46,7.32c.47.53.58,1.26.34,1.88Z"/></g></svg>